<?xml version="1.0" encoding="UTF-8"?><svg id="svg231" xmlns="http://www.w3.org/2000/svg" xmlns:xlink="http://www.w3.org/1999/xlink" viewBox="0 0 389 484"><defs><clipPath id="clippath"><rect x="0" y="0" width="389" height="484" style="fill:none;"/></clipPath></defs><g style="clip-path:url(#clippath);"><g id="g229"><path id="path181" d="M23,0h343.1c12.2,0,22,9.8,22,21.9v340.2c0,12.1-9.8,21.9-22,21.9H23c-12.2,0-22-9.8-22-21.9V21.9C1,9.8,10.8,0,23,0Z" style="fill:#fff; fill-rule:evenodd;"/><path id="path215" d="M.3,393.2l-.3-61.2,1.7.2,1.4,3.1,2.9,1.7,2.9,1.5,29.1,10.8,25.7,7.2,38.7,8.6,33.9,5.5,27.4,2.1,40.8,1.2,32.6-1.9,34.5-4.1,32.7-5.8,35.5-9.6,28.3-9.6,15.6-5.7,4.1-2.7v133.2l-1,4.3-2.1,3.6-3.3,3.8-4.8,2.6-5,1.2H16.1l-3.9-.7-3.3-1.5-2.1-1-1.7-1.9-1.4-1.5-2.1-3.4-1-3.3-.5-3.3.2-73.2Z" style="fill:#0079bc; fill-rule:evenodd;"/><path id="path217" d="M280.6,376.2v-9.7s-.6,0-.6,0c-.3,0,.5-.1,12.3-2.3l12.3-2.3,1.7-.5c.9-.3,1.7-.5,1.7-.5s0,4.9,0,12.5v12.5s-13.7,0-13.7,0h-13.7v-9.7Z" style="fill:#e84a06; fill-rule:evenodd;"/><path id="path219" d="M280,434.3v-48.7h27.8v-24.1l16.2-4.4,16.2-4.4,14.7-5c8.1-2.7,18-6.2,22-7.6l7.2-2.6,1.9-1.3c1-.7,1.9-1.3,2-1.3s0,29.9,0,66.3v66.3s-.5,2.1-.5,2.1c-.5,1.9-.6,2.3-1.5,3.9-.6,1.1-1.6,2.5-2.7,3.6l-1.6,1.9-2.4,1.3c-2.2,1.2-2.6,1.3-4.9,1.9l-2.5.6h-45.9s-45.9,0-45.9,0v-48.7Z" style="fill:#e84a06; fill-rule:evenodd;"/><path id="path221" d="M348,402.2h8.1l.6.2.8.6.3.7v.9c.1,0,0,1.1,0,1.1l-13.8,50-.4.5-.5.4-.4.2h-7.7s-.6-.3-.6-.3l-.5-.4-.5-.8-.4-.8v-.6s0-.8,0-.8l4.4-12.6v-1c0,0,.2-1.1.2-1.1v-1.2s-.6-.5-.6-.5l-.6-.4-1.1-.3h-1.7c0,0-25.8,0-25.8,0l-.5-.3-.4-.6-.5-1-.3-1.3v-1.1s0-.6,0-.6l30.2-43.5,1.2-.7h1.3c0-.1,2.1,0,2.1,0h1.7l.3.2.7.5.5.8.5.8v1.2c.1,0,0,.8,0,.8v.4c0,0-.2.5-.2.5l-19.7,31-.2.5v2.2c0,0,.2.5.2.5l.4.2h13.2l.6-.4.5-.8.8-2.4,6.3-19,.2-.5.4-.4.3-.2.5-.2.2-.2Z" style="fill:#fff; fill-rule:evenodd;"/><path d="M46.6,416.5c2,1.7,3.1,4.5,3.1,8.4v21h-8.4v-19c0-1.6-.2-2.9-.7-3.8-.8-1.6-2.3-2.4-4.6-2.4s-4.6,1.2-5.7,3.5c-.5,1.2-.8,2.8-.8,4.8v16.9h-8.2v-31.2h7.9v4.6c1-1.6,2-2.8,3-3.5,1.7-1.3,3.8-1.9,6.4-1.9s5.8.8,7.9,2.5Z" style="fill:#fff;"/><path d="M58.5,451.9h1c.8,0,1.6,0,2.3,0,.7,0,1.3-.3,1.8-.7.5-.3.9-1,1.3-2,.4-1,.6-1.7.5-1.9l-11.5-32.6h9.1l6.8,23,6.4-23h8.7l-10.7,30.7c-2.1,5.9-3.7,9.6-4.9,11-1.2,1.4-3.6,2.1-7.2,2.1s-1.3,0-1.7,0c-.4,0-1.1,0-2-.1v-6.5Z" style="fill:#fff;"/><path d="M102.3,426.9c1.5-.2,2.6-.4,3.3-.7,1.2-.5,1.8-1.3,1.8-2.3s-.5-2.2-1.4-2.7c-.9-.5-2.2-.7-4-.7s-3.3.5-4.2,1.4c-.6.7-1,1.7-1.2,2.9h-7.9c.2-2.7.9-5,2.3-6.7,2.2-2.8,5.9-4.1,11.2-4.1s6.5.7,9.2,2c2.7,1.4,4,3.9,4,7.7v14.3c0,1,0,2.2,0,3.6,0,1.1.2,1.8.5,2.2.3.4.7.7,1.2.9v1.2h-8.9c-.2-.6-.4-1.2-.5-1.8,0-.6-.2-1.2-.2-1.9-1.1,1.2-2.4,2.3-3.9,3.1-1.8,1-3.8,1.5-6,1.5s-5.2-.8-7-2.4c-1.9-1.6-2.8-3.9-2.8-6.9s1.5-6.6,4.5-8.3c1.6-.9,4-1.6,7.2-2l2.8-.3ZM107.3,430.8c-.5.3-1.1.6-1.6.8s-1.3.4-2.2.6l-1.9.3c-1.7.3-3,.7-3.8,1.1-1.3.7-1.9,1.9-1.9,3.5s.4,2.4,1.2,3,1.7.9,2.9.9c1.8,0,3.4-.5,4.9-1.5,1.5-1,2.3-2.9,2.3-5.6v-3Z" style="fill:#fff;"/><path d="M147.7,416.5c2,1.7,3.1,4.5,3.1,8.4v21h-8.4v-19c0-1.6-.2-2.9-.7-3.8-.8-1.6-2.3-2.4-4.6-2.4s-4.6,1.2-5.7,3.5c-.5,1.2-.8,2.8-.8,4.8v16.9h-8.2v-31.2h7.9v4.6c1-1.6,2-2.8,3-3.5,1.7-1.3,3.8-1.9,6.4-1.9s5.8.8,7.9,2.5Z" style="fill:#fff;"/><path d="M166.8,411h-8.3v-7.5h8.3v7.5ZM158.5,414.7h8.3v31.2h-8.3v-31.2Z" style="fill:#fff;"/><path d="M182.8,414.7v18.8c0,1.8.2,3.1.6,4,.7,1.6,2.2,2.4,4.4,2.4s4.7-1.1,5.7-3.4c.5-1.2.8-2.8.8-4.8v-17h8.3v31.2h-7.9v-4.4c0,0-.3.4-.6.9s-.7.9-1.1,1.3c-1.3,1.1-2.5,1.9-3.7,2.3-1.2.4-2.6.6-4.2.6-4.6,0-7.7-1.7-9.3-5-.9-1.8-1.3-4.5-1.3-8.1v-18.8h8.4Z" style="fill:#fff;"/><path d="M249.5,414.8c1.3.5,2.6,1.5,3.6,2.8.9,1.1,1.5,2.4,1.8,4,.2,1.1.3,2.6.3,4.6v19.7h-8.4v-19.9c0-1.2-.2-2.2-.6-2.9-.7-1.5-2.1-2.2-4-2.2s-3.8.9-4.7,2.8c-.4,1-.7,2.2-.7,3.6v18.6h-8.2v-18.6c0-1.9-.2-3.2-.6-4-.7-1.5-2-2.3-4-2.3s-3.9.8-4.7,2.3c-.4.9-.7,2.1-.7,3.8v18.8h-8.3v-31.2h7.9v4.6c1-1.6,2-2.8,2.9-3.5,1.6-1.2,3.6-1.8,6.2-1.8s4.3.5,5.8,1.6c1.2,1,2.1,2.2,2.7,3.8,1.1-1.8,2.4-3.2,4-4,1.7-.9,3.6-1.3,5.6-1.3s2.7.3,4.1.8Z" style="fill:#fff;"/></g><g id="svg8"><path d="M65.9,120.8c-.2-2.2-1-4.1-1.4-6.1-1.5-7.7-2.4-15.5-.8-23.6.5-2.5,1.2-4.9,2.5-7.3,3-5.6,7.9-8.7,14.9-9.1,5.5-.4,10.7.3,15.8,1.4,13.7,2.9,26.5,7.3,38.5,13.2,4.9,2.4,9.4,5,13.7,8.1.7.5,1.3,1,1.8,1.6.6.8.5,2.1-.3,2.9-.8.9-2.1,1.3-3.4,1-.7-.1-1.2-.4-1.7-.8-8.9-6.4-19.3-11-30.1-14.9-7.7-2.8-15.7-5-24.1-6.5-3.8-.6-7.7-.9-11.7-.5-3.1.3-5.3,1.9-6.8,4.2-2.2,3.3-2.8,6.8-3.1,10.3-.6,5.6,0,11.1,1,16.5,1,5.8,2.7,11.3,4.7,16.7,2.2,5.9,5,11.5,8.7,16.8,1.1,1.5,2.1,3.1,2.7,5-1.5.6-3.1,1.2-4.8,1.7-4.1-3.3-6.4-7.7-8.7-12-.9-1.8-1.7-3.6-2.6-5.4-1.5-4.4-3-8.7-4.6-13.2h0Z" style="fill:#0079bc;"/><path d="M295.4,77.4c-1.1-1.3-1.2-2.8-1.3-4.4-.3-4.2-.5-8.5-1.6-12.5-1.3-5.2-2.8-10.4-4.9-15.4-2.3-5.4-4.9-10.7-8.3-15.6-2.6-3.8-5.6-7.3-9.6-10.2-1.1-.8-2.3-1.4-3.6-2-3.1-1.3-6.3-1.1-9.4,1.1-4.2,2.9-7.7,6.3-10.7,10.1-10.4,12.8-18.8,26.4-24.5,40.8-.7,1.9-1.3,3.8-1.9,5.7-.2.7-.5,1.4-.9,2.1-.6,1.1-2.1,1.9-3.4,1.7-1.4-.1-2.4-1.1-2.3-2.3,0-1.9.9-3.7,1.5-5.6,2.1-6.5,5.3-12.7,8.6-18.9,5.6-10.2,12.4-19.9,20.4-29.2,3.3-3.8,7.2-7.1,11.9-9.9,1.7-.6,3.3-1.2,5.2-1.8,4-.5,7.3.2,10.3,1.7,2.5,1.1,4.5,2.7,6.5,4.4,6,5.3,9.8,11.7,13.3,18.4.9,1.7,1.7,3.5,2.6,5.3,1.7,5,3.5,10.1,5.3,15.3.6,2.8,1.3,5.5,1.6,8.2.4,3.7.9,7.5-.3,11.3l-4.3,1.5h0Z" style="fill:#0079bc;"/><path d="M233.6,79.2c-2.8.4-4-.6-3.5-2.9.5-2.4,1.5-4.8,2.5-7.1,3.2-7.6,7.3-14.9,13.5-21.3,3-3.1,6.4-5.8,10.5-7.7,3.5-1.6,6.9-1.4,9.5.6,2.9,2.2,4.8,5,6.5,7.9,4.5,7.4,7,15.5,7.8,24.2,0,.3,0,.6,0,.9,0,2.7-1.7,4.2-4.9,4.3-1.3,0-2.7,0-4-.3-11.3-1.3-22.9-1.1-34.6.5-1.1.2-2.3.4-3.5.9h0Z" style="fill:#0079bc;"/><path d="M121.6,100.7c5.1,2.1,9.8,4.7,14.2,7.5.4.3.9.6,1.2.9,1.7,1.6,1.2,3.4-1.4,4.4-2.6,1-4.9,2.3-7.1,3.8-8.6,5.5-16.5,11.7-23.5,18.7-1.1,1.1-2.2,2.1-3.5,3-2.1,1.4-4,1.3-5.3-.4-2.2-2.8-3.8-5.9-5.2-9-2.4-5.5-4.1-11.1-4.7-17.1-.2-2.3-.3-4.7,0-7.1.5-4.9,3.6-7.7,9.3-8.6,6.5-1,12.6-.2,18.4,1.4,2.6.7,5.1,1.6,7.6,2.6h0Z" style="fill:#0079bc;"/><path id="path830" d="M252,69.4c-76.9,0-189.5,53.8-189.5,143.8s43.1,118.3,131.9,118.3,153.9-47.2,153.9-124.8-57.4-97.5-90.8-100.1v24.9c37.2,3.1,81.6,32.2,79.5,79.3-1.9,43.1-46.5,99.3-144.3,102.8-62.3,2.2-120.5-43-119.1-96.3,1.3-50.8,65.1-119.9,175.9-123.1,29.3-.8,48.2,9.1,55.1,13.9l3.7-31.2s-21.7-7.5-56.2-7.5h0Z" style="fill:#0079bc;"/><path id="path1015" d="M274.9,179c-3.2,0-6.1,1-6,3.9l.8,21.3c0,1.3-.4,1.5-1.6,1.8-6.6,1.8-19.3,8.6-19.3,33.4s2.1,19.9,10.1,19.9,10.3-8.5,12.3-12.7l.4,11.4c.1,4.3,10.4,5.1,10.5.8l1.7-75.3c0-2.4-4.7-4.4-8.9-4.5h0ZM268.9,217c.5,0,.9.2.9,1.4l-.2,16.9c0,1.4-.2,2.1-.9,3.1-1.5,2.1-3.1,3.9-5.2,6.3-2,2.2-1.9-.9-1.9-2.5-.2-13.1,3.3-21.4,6.5-24.7,0,0,.5-.4.9-.4h0Z" style="fill:#0079bc;"/><path id="path1019" d="M180.5,240.6v-11.2h-14.6l1.5,49.3c.2,6,12.4,5,11.8-.3-1.9-17.7.3-26.1,4.2-30.7,3-3.5,4.1-.5,4.3.9,1.4,9.4,2.7,19.5,4.1,30.5.6,5.1,10.7,5.6,10.9-.3.5-10.1-.4-34.1-4.2-42.3-4-8.6-13.9-5.8-16.9,4.1-.4,1.2-1.3,1-1.3,0h0Z" style="fill:#0079bc;"/><path id="path1037" d="M146.1,240.8h7.7l7.3,2.4-1.3,44c-.2,5.8-11.9,6.1-12.1-.7l-1.6-45.7h0Z" style="fill:#0079bc;"/><path id="path1039" d="M152.8,222.5c-2.7,2.8-4.8,6-6.9,9.1,2.8,2.5,6.1,4.8,9.7,7,3-3,5.2-5.9,7.3-8.9-3.1-2.6-6.4-5.1-10-7.3h0Z" style="fill:#0079bc;"/><path id="path1047" d="M232.5,214.2h7.5l6.8,2.6-.7,43.5c0,5.6-12.3,6.6-12.4,0l-1.2-46.1h0Z" style="fill:#0079bc;"/><path id="path1049" d="M239,195.9c-2.7,2.9-4.9,6.1-7.1,9.3,2.9,2.5,6.2,4.9,9.9,7.2,3-3,5.3-6.1,7.4-9.1-3.1-2.7-6.5-5.1-10.2-7.4h0Z" style="fill:#0079bc;"/><path id="path1060" d="M305.4,189.4c-12.6,0-19,16.5-19,33.1s6.7,20.3,16.5,20.3,16.3-11.8,16.3-14.7c0-4.3-6.7-7.7-10.5-2.5-3,4-5.4,6.3-7.3,6.2-1.9,0-3.1-3.3-3-9.1,0-2.1.7-2.3,1.8-2.3,10.1,0,16.9-13.1,16.9-20.1s-5.7-10.8-11.7-10.8h0ZM306.8,199.2c2.8.5.5,12.3-6.9,15.7-.3-6.3,4.1-16.3,6.9-15.7Z" style="fill:#0079bc;"/><path id="path1069" d="M213.8,217c-4.6,4.3-5.5,5.5-9,11.5-1.5,2.5-3.4,6.9.5,11.1l10.6,11.7c1.8,2,1.3,3.7,0,5.7l-8.5,13.1c-4.3,6.7,6,11.8,9.8,8,4.3-4.3,8.7-9.7,11.1-15.3,2-4.8,2.3-9.6,0-12.8-2.8-3.9-6.1-7.2-10.1-9.9-2.4-1.6-2.5-3.1-.8-5.2l10.4-13c1.9-2.3-.9-9.9-5.6-9.8-1.1,0-4.5,1.3-8.5,5.1h0Z" style="fill:#0079bc;"/><path d="M138.1,192.8l-.3,27.5c0,2.4-1.7,3.7-5.1,3.7s-3.2-.8-4.5-2.3c-1.1-1.4-1.8-3.1-1.9-4.9l-1.8-24.8c-.2-2.5-.4-4.1-.6-4.8-.5-2-1.4-3.2-2.7-3.6-2.8,1.5-4.7,4.6-5.7,9.3-.5,2.3-.9,6.1-1.2,11.5l-.8,16c0,.9-1,1.6-2.8,2-1.3.3-2.6.5-3.9.5s-1.4-.4-2.7-1.2c-1.4-.8-2.1-1.3-2.1-1.7v-53.1c0-.9.5-1.4,1.6-1.4h11.2c1.5,0,2.3,1.3,2.3,4v9.1c0-1.9,1.2-4,3.7-6.5,2.5-2.5,4.6-3.8,6.5-3.8,5,0,8.1,3.8,9.2,11.4.4,2.2.7,4.4,1.1,6.6.4,2.6.7,4.8.6,6.6h0Z" style="fill:#0079bc;"/><path d="M176.7,197.4c0,4.6-4.8,9.6-14.3,15.1-3.7,0-6.9-.3-9.6-.8-4.3-.8-7.7-3.9-9.9-9.2-1.9-4.2-2.8-8.9-2.8-14,0-8.5,1.7-16.2,5.1-23.3,4.3-8.9,10.2-13.3,17.7-13.3s7.2,1.2,9.4,3.7c2.2,2.5,3.3,5.7,3.3,9.8s-1.9,8.9-5.6,13.6c-3.9,5-7.9,7.6-12.1,7.8-1.5,0-2.7.5-3.6,1.3s-1.2,2.2-1.2,4.3c0,5.3,1.2,8,3.6,8s2.8-1.7,6.4-5c3.5-3.3,6.3-5,8.2-5,3.7,0,5.5,2.4,5.5,7.1h0ZM165.4,166.3c0-2-.7-3-2-3s-3.5,2.3-5.3,6.8c-1.7,4-2.5,7.1-2.5,9.3s.2.6.6.6c1.5,0,3.5-1.9,5.8-5.5,2.3-3.5,3.4-6.2,3.4-8.1h0Z" style="fill:#0079bc;"/><path d="M213.3,144.6c0,1.1-.4,3-1.1,5.5-.9,2.7-1.6,4.3-2.3,4.8l-10,6.7c5.2,3.3,7.8,8.9,7.8,16.8,0,11.9-1.6,17.9-4.7,17.9s-4.5-2.8-4.5-8.5-.1-3.7-.4-6.4c-.4-3.4-.6-5.6-.7-6.4-.1-2-1.3-4.1-3.5-6.5-1.2-1.3-2.3-2-3.1-2s-.5.1-.8.4c-.3.3-.4.5-.4.8,0,1.3.1,4.5.3,9.7,0,4,.1,7.3.1,9.7,0,6.2-.7,9.8-2.1,10.7-1.7,1.1-2.9,1.7-3.8,1.7s-.9-.4-1.3-1.1c-.6-1.1-1-1.6-1.1-1.7l-3.2-49.8v-5.2c1-1.6,2.8-2.5,5.3-2.5s5.2.7,5.8,2.1v17.1l18-15.2c1.4-1.1,2.7-1.7,4-1.7s1.9,1,1.9,3h0Z" style="fill:#0079bc;"/><path d="M252,155.5c0,7.1-1.1,13.2-3.3,18.3-2.7,6.3-7,10.6-12.8,12.9-1.9.8-3.8,1.1-5.8,1.1-5.4,0-9.6-2.7-12.6-8.1-2.5-4.4-3.7-9.5-3.7-15.4s.2-4.7.6-7.1c.8-4.9,2.5-10.3,5.2-16.4,3.3-7.5,6.6-11.7,9.9-12.8,1.8-.5,4.3-.8,7.7-.8,5.4,0,9.4,3.5,12,10.6,1.8,5,2.7,10.8,2.7,17.5h0ZM241.2,154.2c0-3.4-.3-6.4-1.1-9-1.1-3.9-2.8-5.9-5.2-5.9s-4.9,3.4-6.4,10.2c-1.1,4.7-1.6,9.3-1.6,13.7,0,8.5,1.3,12.8,4.1,12.8s6.3-2.9,8.1-8.6c1.3-4.2,2-8.6,2-13.2h0Z" style="fill:#0079bc;"/></g></g></svg>